# xmcd
#
# Track frame offsets:
#	150
#	17566
#	30232
#	51210
#	82824
#	111515
#	122709
#	144900
#	166233
#	193285
#
# Disc length: 2860
#
# Revision: 2
# Processed by: cddbd v1.5.1PL0 Copyright (c) Steve Scherf et al.
# Submitted via: CDex 1.40Beta6
# Normalized: r1:TDELIM( - )
#
DISCID=7a0b2a0a
DTITLE=Paul Oakenfold - Perfecto Chills Vol.2 [CD1)
DYEAR=2004
DGENRE=Acid Jazz
TTITLE0=Junkie XL(feat.Robert Smith) - Perfect Blue Sky
TTITLE1=Oakenfold(feat.Hunter Thompson) - Nixon's Spirit
TTITLE2=Nelly Furtado - Try(feat.Kronos Quartet)
TTITLE3=Tong&Cox - Ku Da Ta
TTITLE4=The Egg - Say You Will
TTITLE5=Savath&Savalas - Um Girassol Da Cor Seu Cableo
TTITLE6=Nobody - White Folding Slowly(into Blue Remix)
TTITLE7=Tali - Grey Dazz
TTITLE8=Afterlife - Miracle(Cantoma Remix)
TTITLE9=Backini - 25
EXTD=
EXTT0=
EXTT1=
EXTT2=
EXTT3=
EXTT4=
EXTT5=
EXTT6=
EXTT7=
EXTT8=
EXTT9=
PLAYORDER=
